<svg width="40" height="40" viewBox="0 0 40 40" fill="none" xmlns="http://www.w3.org/2000/svg">
<path fill-rule="evenodd" clip-rule="evenodd" d="M38.75 10.3847C38.75 5.07805 34.549 0.769287 29.375 0.769287H10.625C5.45104 0.769287 1.25 5.07805 1.25 10.3847V29.6154C1.25 34.9221 5.45104 39.2308 10.625 39.2308H29.375C34.549 39.2308 38.75 34.9221 38.75 29.6154V10.3847Z" fill="#3CD0D9"/>
<path d="M32.4825 24.2734C31.5075 24.2734 30.3492 24.5224 29.4961 25.1463C29.2523 25.3333 29.2523 25.5822 29.5575 25.5822C30.5325 25.4572 32.7273 25.1463 33.1534 25.7072C33.519 26.2061 32.7263 28.3258 32.3607 29.3226C32.2388 29.6346 32.4825 29.6965 32.7263 29.5095C34.3721 28.0758 34.7982 25.1452 34.494 24.7713C34.3107 24.4604 33.4575 24.2734 32.4825 24.2734Z" fill="white"/>
<path d="M5.57411 25.128C7.45953 26.3385 9.36578 27.4945 11.3668 28.3673C13.3606 29.2381 15.4522 29.8609 17.5543 29.8695C19.6949 29.9282 21.8689 29.6269 23.9783 29.1344C26.0949 28.6344 28.1574 27.8812 30.1835 26.9998C30.4481 26.8834 30.7554 27.0105 30.8679 27.2819C30.972 27.5329 30.8741 27.8214 30.6491 27.956C28.6835 29.1195 26.5574 30.0212 24.3429 30.6323C22.122 31.2434 19.8283 31.5105 17.5064 31.472C15.1356 31.3449 12.8658 30.6045 10.8345 29.5265C8.79807 28.4432 6.94911 27.0799 5.26057 25.5554C5.15224 25.4571 5.14182 25.2883 5.23661 25.1772C5.32411 25.0778 5.46786 25.0596 5.57411 25.128Z" fill="white"/>
<path d="M18.4401 22.1368H18.0193C16.8151 22.1368 15.8359 21.1325 15.8359 19.8975V15.7266H16.8776V19.8975C16.8776 20.5428 17.3901 21.0684 18.0193 21.0684H18.4401C19.0682 21.0684 20.0026 20.1101 20.0026 19.4659V18.3975H21.0443V19.4659C21.0443 20.7137 19.6568 22.1368 18.4401 22.1368Z" fill="white"/>
<path d="M7.5026 15.7266H6.46094V22.1368H7.5026V15.7266Z" fill="white"/>
<path d="M6.86903 18.0878C6.84716 17.5675 7.02216 17.1359 7.25653 16.7449C7.37841 16.5494 7.51278 16.3624 7.70237 16.1861C7.91278 16.0034 8.15445 15.8838 8.40237 15.8026C9.42737 15.4906 10.4972 16.1284 10.942 17.0804C11.1742 17.5622 11.1524 18.1423 11.1492 18.4949V22.137H10.1076V18.4949C10.1097 18.0451 10.1159 17.7855 9.99508 17.5269C9.77737 16.9949 9.13466 16.7588 8.60445 16.7748C8.13987 16.7545 7.51799 17.512 7.38883 18.0878H6.86903Z" fill="white"/>
<path d="M10.3612 18.0878C10.3393 17.5675 10.5143 17.1359 10.7487 16.7449C10.8706 16.5494 11.005 16.3624 11.1946 16.1861C11.405 16.0034 11.6466 15.8838 11.8946 15.8026C12.9196 15.4906 13.9893 16.1284 14.4341 17.0804C14.6664 17.5622 14.6446 18.1423 14.6414 18.4949V22.137H13.5998V18.4949C13.6018 18.0451 13.6081 17.7855 13.4873 17.5269C13.2696 16.9949 12.6268 16.7588 12.0966 16.7748C11.6321 16.7545 11.0102 17.512 10.881 18.0878H10.3612Z" fill="white"/>
<path d="M21.0417 15.7266H20V22.1368H21.0417V15.7266Z" fill="white"/>
<path d="M28.3307 15.7266H27.2891V22.1368H28.3307V15.7266Z" fill="white"/>
<path d="M27.8151 14.6582C28.3904 14.6582 28.8568 14.1799 28.8568 13.5899C28.8568 12.9998 28.3904 12.5215 27.8151 12.5215C27.2398 12.5215 26.7734 12.9998 26.7734 13.5899C26.7734 14.1799 27.2398 14.6582 27.8151 14.6582Z" fill="white"/>
<path d="M30.4167 18.5257V19.3377C30.4167 20.2885 31.1771 21.0684 32.1042 21.0684C32.5521 21.0684 32.9792 20.8868 33.3021 20.5663L33.5417 20.3206V21.7095C33.1146 21.9872 32.625 22.1368 32.1042 22.1368C30.6042 22.1368 29.375 20.8761 29.375 19.3377V18.5257C29.375 16.9872 30.6042 15.7266 32.1042 15.7266C32.625 15.7266 33.1146 15.8761 33.5417 16.1539V17.5428L33.3021 17.2971C32.9792 16.9766 32.5521 16.7949 32.1042 16.7949C31.1771 16.7949 30.4167 17.5749 30.4167 18.5257Z" fill="white"/>
<path d="M23.3828 16.747C23.2786 16.8218 23.1276 17.0408 23.1276 17.3293C23.1276 17.9489 23.4609 18.1306 24.3359 18.4297C25.1484 18.6968 26.2526 19.0814 26.2526 20.5344C26.2526 21.09 26.0443 21.5494 25.638 21.8699C25.1276 22.2758 24.3568 22.4041 23.6172 22.4041C23.0547 22.4041 22.4922 22.3293 22.0859 22.2545V21.1647C23.0651 21.3677 24.4609 21.4639 24.9922 21.0258C25.0964 20.9511 25.2109 20.8229 25.2109 20.5344C25.2109 19.9147 24.8776 19.7331 24.0026 19.434C23.1901 19.1669 22.0859 18.7823 22.0859 17.3293C22.0859 16.7737 22.2943 16.3143 22.7005 15.9938C23.6068 15.2673 25.1036 15.4607 26.0266 15.8186V16.9083C25.062 16.3378 23.9141 16.309 23.3828 16.747Z" fill="white"/>
</svg>
