<svg width="40" height="40" viewBox="0 0 40 40" fill="none" xmlns="http://www.w3.org/2000/svg">
<g clip-path="url(#clip0_5894_14490)">
<path d="M39.7393 34.2544C39.7393 37.2829 37.2854 39.7369 34.2569 39.7369H5.74808C2.72067 39.7369 0.265625 37.2829 0.265625 34.2544V5.74564C0.265625 2.71713 2.72067 0.263184 5.74808 0.263184H34.2569C37.2854 0.263184 39.7393 2.71713 39.7393 5.74564V34.2544Z" fill="#D80027"/>
<path d="M15.3662 9.93536C14.8684 10.0505 14.5164 10.4935 14.5164 11.0044V25.4825C14.5164 26.0878 14.0252 26.579 13.42 26.579H12.3235C9.90132 26.579 7.9375 28.0516 7.9375 29.8685C7.9375 31.6854 9.90132 33.158 12.3235 33.158C14.7456 33.158 16.7094 31.6854 16.7094 29.8685V17.0768C16.7094 16.5658 17.0614 16.1229 17.5592 16.0088L25.5702 14.1601C26.0855 14.0406 26.5779 14.4321 26.5779 14.9606V22.193C26.5779 22.7983 26.0866 23.2895 25.4814 23.2895H24.3849C21.9627 23.2895 19.9989 24.7621 19.9989 26.579C19.9989 28.3959 21.9627 29.8685 24.3849 29.8685C26.807 29.8685 28.7708 28.3959 28.7708 26.579V8.22045C28.7708 7.51541 28.1151 6.99348 27.4276 7.15247L15.3662 9.93536Z" fill="white"/>
</g>
<defs>
<clipPath id="clip0_5894_14490">
<rect width="40" height="40" fill="white"/>
</clipPath>
</defs>
</svg>
